<svg width="16" height="18" viewBox="0 0 16 18" fill="none" xmlns="http://www.w3.org/2000/svg">
<path d="M9.99984 3.3335H3.99984C3.64622 3.3335 3.30708 3.47397 3.05703 3.72402C2.80698 3.97407 2.6665 4.31321 2.6665 4.66683V15.3335C2.6665 15.6871 2.80698 16.0263 3.05703 16.2763C3.30708 16.5264 3.64622 16.6668 3.99984 16.6668H11.9998C12.3535 16.6668 12.6926 16.5264 12.9426 16.2763C13.1927 16.0263 13.3332 15.6871 13.3332 15.3335V6.66683L9.99984 3.3335Z" stroke="#737373" stroke-width="1.33333" stroke-linecap="round" stroke-linejoin="round"/>
<path d="M9.3335 3.3335V6.00016C9.3335 6.35378 9.47397 6.69292 9.72402 6.94297C9.97407 7.19302 10.3132 7.3335 10.6668 7.3335H13.3335" stroke="#737373" stroke-width="1.33333" stroke-linecap="round" stroke-linejoin="round"/>
<path d="M6.66683 8H5.3335" stroke="#737373" stroke-width="1.33333" stroke-linecap="round" stroke-linejoin="round"/>
<path d="M10.6668 10.6665H5.3335" stroke="#737373" stroke-width="1.33333" stroke-linecap="round" stroke-linejoin="round"/>
<path d="M10.6668 13.3335H5.3335" stroke="#737373" stroke-width="1.33333" stroke-linecap="round" stroke-linejoin="round"/>
</svg>
