<svg width="20" height="22" viewBox="0 0 20 22" fill="none" xmlns="http://www.w3.org/2000/svg">
<path d="M16.6663 10.3332C16.6663 14.494 12.0505 18.8273 10.5005 20.1657C10.3561 20.2742 10.1803 20.333 9.99967 20.333C9.81901 20.333 9.64324 20.2742 9.49884 20.1657C7.94884 18.8273 3.33301 14.494 3.33301 10.3332C3.33301 8.56506 4.03539 6.86937 5.28563 5.61913C6.53587 4.36888 8.23156 3.6665 9.99967 3.6665C11.7678 3.6665 13.4635 4.36888 14.7137 5.61913C15.964 6.86937 16.6663 8.56506 16.6663 10.3332Z" stroke="#155DFC" stroke-width="1.66667" stroke-linecap="round" stroke-linejoin="round"/>
<path d="M10 12.8335C11.3807 12.8335 12.5 11.7142 12.5 10.3335C12.5 8.95278 11.3807 7.8335 10 7.8335C8.61929 7.8335 7.5 8.95278 7.5 10.3335C7.5 11.7142 8.61929 12.8335 10 12.8335Z" stroke="#155DFC" stroke-width="1.66667" stroke-linecap="round" stroke-linejoin="round"/>
</svg>
