<svg width="21" height="23" viewBox="0 0 21 23" fill="none" xmlns="http://www.w3.org/2000/svg">
<path d="M12.6999 4.46631H5.19987C4.75784 4.46631 4.33392 4.6419 4.02136 4.95446C3.7088 5.26702 3.5332 5.69095 3.5332 6.13298V19.4663C3.5332 19.9083 3.7088 20.3323 4.02136 20.6448C4.33392 20.9574 4.75784 21.133 5.19987 21.133H15.1999C15.6419 21.133 16.0658 20.9574 16.3784 20.6448C16.6909 20.3323 16.8665 19.9083 16.8665 19.4663V8.63298L12.6999 4.46631Z" stroke="#155DFC" stroke-width="1.66667" stroke-linecap="round" stroke-linejoin="round"/>
<path d="M11.8672 4.46631V7.79964C11.8672 8.24167 12.0428 8.66559 12.3553 8.97815C12.6679 9.29071 13.0918 9.46631 13.5339 9.46631H16.8672" stroke="#155DFC" stroke-width="1.66667" stroke-linecap="round" stroke-linejoin="round"/>
<path d="M8.53385 10.2998H6.86719" stroke="#155DFC" stroke-width="1.66667" stroke-linecap="round" stroke-linejoin="round"/>
<path d="M13.5339 13.6333H6.86719" stroke="#155DFC" stroke-width="1.66667" stroke-linecap="round" stroke-linejoin="round"/>
<path d="M13.5339 16.9663H6.86719" stroke="#155DFC" stroke-width="1.66667" stroke-linecap="round" stroke-linejoin="round"/>
</svg>
